HIERARCHY
ROOT Hips
{
	OFFSET	0.000000	0.000000	0.000000
	CHANNELS 6 Xposition Yposition Zposition Zrotation Xrotation Yrotation
	JOINT LeftUpLeg
	{
		OFFSET	12.830505	-7.049846	-1.643436
		CHANNELS 3 Zrotation Xrotation Yrotation
		JOINT LeftLeg
		{
			OFFSET	0.620834	-39.957500	-1.919341
			CHANNELS 3 Zrotation Xrotation Yrotation
			JOINT LeftFoot
			{
				OFFSET	-0.413890	-44.704761	-3.870325
				CHANNELS 3 Zrotation Xrotation Yrotation
				JOINT LeftFootHeel
				{
					OFFSET	0.164738	-8.918193	-6.555130
					CHANNELS 3 Zrotation Xrotation Yrotation
					End Site
					{
						OFFSET	-0.604053	0.000000	21.044330
					}
				}
			}
		}
	}
	JOINT RightUpLeg
	{
		OFFSET	-12.830505	-7.049846	-1.643436
		CHANNELS 3 Zrotation Xrotation Yrotation
		JOINT RightLeg
		{
			OFFSET	-0.620834	-39.957500	-1.919341
			CHANNELS 3 Zrotation Xrotation Yrotation
			JOINT RightFoot
			{
				OFFSET	0.413890	-44.704761	-3.870325
				CHANNELS 3 Zrotation Xrotation Yrotation
				JOINT RightFootHeel
				{
					OFFSET	-0.164738	-8.918193	-6.555130
					CHANNELS 3 Zrotation Xrotation Yrotation
					End Site
					{
						OFFSET	0.604053	0.000000	21.044330
					}
				}
			}
		}
	}
	JOINT Spine
	{
		OFFSET	0.000000	12.498170	1.820647
		CHANNELS 3 Zrotation Xrotation Yrotation
		JOINT Spine1
		{
			OFFSET	0.000000	7.620000	0.000000
			CHANNELS 3 Zrotation Xrotation Yrotation
			JOINT LeftShoulder
			{
				OFFSET	9.167800	29.136339	-5.551221
				CHANNELS 3 Zrotation Xrotation Yrotation
				JOINT LeftArm
				{
					OFFSET	12.133453	-3.880866	1.461963
					CHANNELS 3 Zrotation Xrotation Yrotation
					JOINT LeftForeArm
					{
						OFFSET	2.507115	-31.664908	-1.069404
						CHANNELS 3 Zrotation Xrotation Yrotation
						JOINT LeftHand
						{
							OFFSET	4.116172	-24.512624	5.009439
							CHANNELS 3 Zrotation Xrotation Yrotation
							End Site
							{
								OFFSET	-0.213136	-10.931856	2.182134
							}
						}
					}
				}
			}
			JOINT RightShoulder
			{
				OFFSET	-9.167800	29.136339	-5.551221
				CHANNELS 3 Zrotation Xrotation Yrotation
				JOINT RightArm
				{
					OFFSET	-12.133453	-3.880866	1.461963
					CHANNELS 3 Zrotation Xrotation Yrotation
					JOINT RightForeArm
					{
						OFFSET	-2.507115	-31.664908	-1.069404
						CHANNELS 3 Zrotation Xrotation Yrotation
						JOINT RightHand
						{
							OFFSET	-4.116172	-24.512624	5.009439
							CHANNELS 3 Zrotation Xrotation Yrotation
							End Site
							{
								OFFSET	0.213136	-10.931856	2.182134
							}
						}
					}
				}
			}
			JOINT Neck
			{
				OFFSET	0.000000	32.926272	-3.635654
				CHANNELS 3 Zrotation Xrotation Yrotation
				JOINT Head
				{
					OFFSET	0.000000	12.481178	4.646143
					CHANNELS 3 Zrotation Xrotation Yrotation
					End Site
					{
						OFFSET	0.000000	17.715204	-2.222063
					}
				}
			}
		}
	}
}
MOTION
Frames:     6
Frame Time: 0.016667
0.000000	103.328604	0.000000	0.295141	1.513826	-2.566782	-1.378882	-3.181978	4.935317	0.814055	1.682184	-1.723639	-0.375073	0.753515	-1.092646	0.	0.	0.	0.421556	-3.077041	-1.023260	-0.716754	3.984171	0.869123	-0.089163	-3.289567	-5.807205	0.	0.	0.	-0.000000	0.000000	0.000001	-0.414031	-2.556839	1.405194	-1.654194	1.352461	-0.522305	2.990965	4.540678	-0.819706	-3.373344	-11.011343	7.079837	7.436713	5.080368	-3.798489	1.491498	0.738035	0.843244	-3.557842	2.466139	-2.252404	2.157850	-1.899631	1.059592	-8.023662	0.870593	0.585128	2.429089	5.486225	-6.479219	0.185204	-4.967567	1.821056	
-0.001333	103.328488	-0.017002	0.296876	1.518574	-2.567279	-1.376903	-3.211920	4.951404	0.813227	1.707278	-1.739560	-0.375073	0.753515	-1.092646	0.	0.	0.	0.416541	-3.076005	-1.053594	-0.706629	3.961189	0.861236	-0.095337	-3.272687	-5.769194	0.	0.	0.	-0.000000	-0.000000	0.000002	-0.442336	-2.525352	1.412248	-1.647232	1.354488	-0.507171	3.026809	4.623909	-0.823601	-3.393471	-11.141875	7.137324	7.406015	5.082724	-3.885117	1.502338	0.756605	0.863252	-3.555175	2.454465	-2.260509	2.171755	-1.942369	1.039722	-8.029130	0.855143	0.566434	2.445717	5.527153	-6.457909	0.173659	-5.033317	1.813920	
-0.000119	103.327674	-0.020826	0.299998	1.527111	-2.568174	-1.381551	-3.227402	4.953209	0.815793	1.713862	-1.740964	-0.375073	0.753515	-1.092646	0.	0.	0.	0.413392	-3.083903	-1.056736	-0.703979	3.955522	0.853494	-0.097048	-3.267808	-5.757604	0.	0.	0.	0.000000	0.000001	0.000002	-0.457522	-2.512445	1.416617	-1.640589	1.357081	-0.504163	3.039238	4.653573	-0.821624	-3.403005	-11.199933	7.165977	7.388132	5.085422	-3.916216	1.506483	0.763452	0.873559	-3.552803	2.451962	-2.278620	2.178579	-1.967534	1.043453	-8.036823	0.842635	0.562008	2.453459	5.541135	-6.449058	0.159227	-5.060030	1.817572	
0.001899	103.327393	-0.026815	0.301380	1.530894	-2.568570	-1.385396	-3.240513	4.955122	0.819286	1.722834	-1.742892	-0.375073	0.753515	-1.092646	0.	0.	0.	0.412202	-3.087741	-1.056347	-0.701912	3.950357	0.834219	-0.097941	-3.262645	-5.738428	0.	0.	0.	-0.000001	0.000001	0.000003	-0.456204	-2.461864	1.422901	-1.645675	1.353471	-0.505252	3.053746	4.708873	-0.809830	-3.423140	-11.316631	7.251469	7.353529	5.062540	-3.940153	1.481268	0.783058	0.904504	-3.549222	2.438512	-2.283713	2.198153	-2.026648	1.011887	-8.048145	0.824241	0.555507	2.455192	5.545455	-6.388422	0.117706	-5.100690	1.796626	
0.004806	103.327548	-0.035278	0.301380	1.530894	-2.568570	-1.388912	-3.252835	4.957300	0.823925	1.734772	-1.745438	-0.375073	0.753515	-1.092646	0.	0.	0.	0.412202	-3.087741	-1.056347	-0.707286	3.955710	0.812673	-0.091409	-3.268111	-5.716485	0.	0.	0.	-0.000001	0.000001	0.000003	-0.442835	-2.385131	1.479884	-1.702276	1.323915	-0.510255	3.113935	4.763967	-0.849623	-3.445499	-11.436736	7.407153	7.370170	5.062417	-3.935069	1.430518	0.830294	0.909796	-3.551305	2.425209	-2.226830	2.234818	-2.079561	0.928700	-8.055272	0.779184	0.559075	2.457407	5.562858	-6.321962	0.084998	-5.165792	1.809745	
0.003176	103.327286	-0.039551	0.301380	1.530894	-2.568570	-1.393143	-3.267642	4.959902	0.836438	1.756392	-1.748264	-0.381770	0.746034	-1.093136	0.	0.	0.	0.412536	-3.091117	-1.057009	-0.711410	3.962729	0.798661	-0.086934	-3.271846	-5.701475	0.	0.	0.	-0.000001	0.000001	0.000003	-0.474084	-2.317954	1.503342	-1.707986	1.272463	-0.494373	3.154653	4.757048	-0.889957	-3.450159	-11.457379	7.502041	7.448639	5.095077	-3.966877	1.436796	0.842887	0.925643	-3.556166	2.419674	-2.162091	2.254841	-2.102873	0.898300	-8.047118	0.778859	0.570863	2.478454	5.573193	-6.314582	0.079675	-5.219736	1.870171	
